<svg width="96" height="64" viewBox="0 0 96 64" fill="none" xmlns="http://www.w3.org/2000/svg">
<rect width="96" height="64" rx="32" fill="#A55F1B"/>
<path d="M54.1203 28H52.0003V21.3333C52.0003 20.6 51.4003 20 50.667 20H45.3337C44.6003 20 44.0003 20.6 44.0003 21.3333V28H41.8803C40.6937 28 40.0937 29.44 40.9337 30.28L47.0537 36.4C47.5737 36.92 48.4137 36.92 48.9337 36.4L55.0537 30.28C55.8937 29.44 55.307 28 54.1203 28ZM38.667 41.3333C38.667 42.0667 39.267 42.6667 40.0003 42.6667H56.0003C56.7337 42.6667 57.3337 42.0667 57.3337 41.3333C57.3337 40.6 56.7337 40 56.0003 40H40.0003C39.267 40 38.667 40.6 38.667 41.3333Z" fill="white"/>
</svg>
