<svg width="24" height="24" viewBox="0 0 24 24" fill="none" xmlns="http://www.w3.org/2000/svg">
<path d="M22.3497 6.93576C21.7773 5.22117 21.0005 4.86405 18.9059 4.4822C17.4648 4.21938 14.9081 4 12.5 4C10.0919 4 7.53486 4.21956 6.09409 4.4822C3.99947 4.86405 3.22273 5.22133 2.65028 6.93576C2.1915 8.31053 2 9.78425 2 11.5C2 13.2158 2.19131 14.6895 2.65028 16.0642C3.22273 17.7788 3.99947 18.136 6.09409 18.5178C7.53499 18.7806 10.0919 19 12.5 19C14.9081 19 17.4651 18.7804 18.9059 18.5178C21.0005 18.136 21.7773 17.7787 22.3497 16.0642C22.8085 14.6895 23 13.2158 23 11.5C23 9.78425 22.8085 8.31045 22.3497 6.93576ZM16.5531 11.9115L10.4386 15.6408C10.0673 15.8672 9.76374 15.7096 9.76374 15.2906V7.70927C9.76374 7.29009 10.0674 7.13259 10.4386 7.359L16.5531 11.0883C16.9244 11.3148 16.9244 11.6851 16.5531 11.9115Z" fill="white"/>
</svg>
