<svg width="32" height="32" viewBox="0 0 32 32" fill="none" xmlns="http://www.w3.org/2000/svg">
<path fill-rule="evenodd" clip-rule="evenodd" d="M25.3904 7.84738C26.4184 8.12414 27.2289 8.93468 27.5057 9.96269C28.0197 11.8408 27.9999 15.7551 27.9999 15.7551C27.9999 15.7551 27.9999 19.6496 27.5057 21.5277C27.2289 22.5557 26.4184 23.3663 25.3904 23.643C23.5123 24.1373 15.9999 24.1373 15.9999 24.1373C15.9999 24.1373 8.50739 24.1373 6.60954 23.6233C5.58154 23.3465 4.771 22.5359 4.49423 21.5079C4 19.6496 4 15.7353 4 15.7353C4 15.7353 4 11.8408 4.49423 9.96269C4.771 8.93468 5.60131 8.10438 6.60954 7.82761C8.48763 7.33337 15.9999 7.33337 15.9999 7.33337C15.9999 7.33337 23.5123 7.33337 25.3904 7.84738ZM19.8545 15.5981L13.6074 19.1961V12.0001L19.8545 15.5981Z" fill="#EF944B"/>
</svg>
